<?xml version="1.0" encoding="utf-8"?>
<!-- Generator: Adobe Illustrator 24.1.0, SVG Export Plug-In . SVG Version: 6.00 Build 0)  -->
<svg version="1.1" id="Freedon" xmlns="http://www.w3.org/2000/svg" xmlns:xlink="http://www.w3.org/1999/xlink" x="0px" y="0px" viewBox="0 0 77.4 38.9" style="enable-background:new 0 0 77.4 38.9;" xml:space="preserve">
  <style type="text/css">
	.st0{fill:#427AC6;}
	.st1{fill:#205291;}
	.st2{fill:#EE6B1E;}
</style>
  <path class="st0" d="M49.6,0.4l11.3,17.5c0,0-9.1-1.2-11.7-6.2C46.5,6.8,49.6,0.4,49.6,0.4" />
  <path class="st0" d="M58.2,1l2.7,16.9c0,0-6.4-3.9-6.8-8.5C53.8,4.8,58.2,1,58.2,1" />
  <path class="st1" d="M54.2,9.4c0.3,4.6,6.7,8.5,6.7,8.5L54.3,7.6C54.2,8.2,54.1,8.8,54.2,9.4" />
  <path class="st2" d="M0.3,14.5H9v2.6H3.3v3h4.9v2.5H3.3v5.6h-3L0.3,14.5z M10.1,18.9H13v1.3l0,0c0.6-0.9,1.6-1.4,2.7-1.4
	c0.2,0,0.4,0,0.6,0.1v2.7c-0.3-0.1-0.5-0.1-0.8-0.1c-1,0-1.8,0.3-2.5,1.1v5.7h-2.9L10.1,18.9z M23.8,22.5c-0.2-1-0.9-1.6-1.8-1.6
	c-0.9,0-1.7,0.5-1.9,1.6H23.8z M20,24.4c0.3,1.3,1.4,1.9,2.7,1.9c1.1,0,2.2-0.4,3.2-1v2.4c-0.9,0.6-2.3,0.9-3.5,0.9
	c-3.1,0-5.3-1.9-5.3-4.8c0-3,2.3-4.9,4.9-4.9c2.3,0,4.5,1.5,4.5,4.6c0,0.3,0,0.7-0.1,1L20,24.4z M34.4,22.5c-0.2-1-0.9-1.6-1.8-1.6
	c-0.9,0-1.7,0.5-1.9,1.6H34.4z M30.7,24.4c0.3,1.3,1.4,1.9,2.7,1.9c1.1,0,2.2-0.4,3.2-1v2.4c-0.9,0.6-2.3,0.9-3.5,0.9
	c-3.1,0-5.3-1.9-5.3-4.8c0-3,2.3-4.9,4.9-4.9c2.3,0,4.5,1.5,4.5,4.6c0,0.3,0,0.7-0.1,1L30.7,24.4z M45.1,21.5
	c-0.5-0.2-1-0.4-1.5-0.4c-1.5,0-2.3,1.1-2.3,2.5c0,1.4,0.8,2.5,2.2,2.5c0.6,0,1.2-0.2,1.6-0.5V21.5z M45.1,27.8
	c-0.7,0.5-1.5,0.7-2.4,0.7c-2.4,0-4.4-1.8-4.4-4.7c0-2.9,2.1-5.1,4.9-5.1c0.7,0,1.3,0.1,1.8,0.3l0,0v-5.3H48v14.5h-2.8L45.1,27.8
	L45.1,27.8z M54.9,26c1.3,0,2.3-1.1,2.3-2.4c0-1.3-1-2.4-2.3-2.4s-2.3,1.1-2.3,2.4C52.6,24.9,53.6,26,54.9,26 M54.9,18.7
	c3,0,5.2,2.1,5.2,4.9c0,2.7-2.2,4.9-5.2,4.9c-3,0-5.2-2.1-5.2-4.9S52,18.7,54.9,18.7 M73.9,22.9c0-0.7-0.1-1-0.3-1.3
	c-0.3-0.3-0.6-0.4-1-0.4c-0.7,0-1.3,0.3-1.8,0.8c0,0.1,0,0.3,0,0.4v5.9h-2.9v-5.4c0-0.6-0.1-1-0.3-1.3c-0.3-0.3-0.6-0.4-1-0.4
	c-0.7,0-1.3,0.4-1.8,0.8v6.3h-2.9v-9.3h2.8v0.8l0,0c0.7-0.6,1.7-1.1,2.8-1.1c1,0,2.2,0.4,2.7,1.3c1-0.9,2.1-1.3,3.3-1.3
	c1,0,1.9,0.4,2.4,0.9c0.6,0.6,0.9,1.4,0.9,2.7v5.9h-2.9V22.9z" />
  <path class="st1" d="M48.3,35.2c0-0.4-0.1-0.6-0.2-0.8c-0.2-0.2-0.4-0.2-0.6-0.2c-0.4,0-0.8,0.2-1.1,0.5c0,0.1,0,0.2,0,0.3v3.5h-1.7
	v-3.3c0-0.4-0.1-0.6-0.2-0.8c-0.2-0.2-0.4-0.2-0.6-0.2c-0.4,0-0.8,0.2-1.1,0.5v3.8H41v-5.6h1.7v0.5l0,0c0.5-0.4,1.1-0.6,1.7-0.6
	c0.6,0,1.3,0.2,1.6,0.8c0.6-0.5,1.3-0.8,2-0.8c0.5,0,1.1,0.2,1.5,0.6c0.4,0.4,0.5,0.9,0.5,1.7v3.5h-1.7L48.3,35.2z M54.3,37.1
	c0.8,0,1.4-0.6,1.4-1.4c0,0,0,0,0,0c0-0.8-0.6-1.4-1.4-1.4c-0.8,0-1.4,0.6-1.4,1.4C52.9,36.5,53.5,37.1,54.3,37.1 M54.3,32.7
	c1.8,0,3.1,1.3,3.1,2.9s-1.3,2.9-3.1,2.9s-3.1-1.3-3.1-2.9S52.5,32.7,54.3,32.7 M61.1,37.2c0.9,0,1.4-0.7,1.4-1.6
	c0-0.8-0.5-1.5-1.4-1.5c-0.3,0-0.7,0.1-1,0.3V37C60.5,37.1,60.8,37.2,61.1,37.2 M58.5,29.7h1.7v3.4l0,0c0.4-0.3,0.9-0.4,1.4-0.4
	c1.4,0,2.7,1.1,2.7,2.8c0,1.8-1.3,3.1-3.1,3.1c-0.5,0-1-0.1-1.4-0.3l-1.4,0.2L58.5,29.7z M65.4,32.8h1.7v5.6h-1.7V32.8z M66.3,30.1
	c0.6,0,1,0.4,1,1c0,0.6-0.5,1-1,1c-0.6,0-1-0.5-1-1C65.3,30.5,65.8,30.1,66.3,30.1 M68.6,29.7h1.7v8.8h-1.7V29.7z M75.5,35
	c-0.1-0.6-0.5-1-1.1-1c-0.5,0-1,0.3-1.2,1H75.5z M73.3,36.1c0.2,0.8,0.8,1.1,1.6,1.1c0.6,0,1.3-0.2,1.9-0.6v1.5
	c-0.6,0.3-1.4,0.5-2.1,0.5c-1.9,0-3.2-1.2-3.2-2.9c0-1.8,1.4-3,3-3c1.4,0,2.7,0.9,2.7,2.8c0,0.2,0,0.4,0,0.6L73.3,36.1z" />
</svg>