<?xml version="1.0" encoding="utf-8"?>
<!-- Generator: Adobe Illustrator 24.1.0, SVG Export Plug-In . SVG Version: 6.00 Build 0)  -->
<svg version="1.1" id="Layer_1" xmlns="http://www.w3.org/2000/svg" xmlns:xlink="http://www.w3.org/1999/xlink" x="0px" y="0px" viewBox="0 0 50.1 28.9" style="enable-background:new 0 0 50.1 28.9;" xml:space="preserve">
  <style type="text/css">
	.st0{fill:#0067A4;}
</style>
  <g>
    <path class="st0" d="M37.1,16.6c-0.3-1.3-0.8-2.3-1.5-3.3c-1.5-2-3.9-3.2-7.1-3.2c-5,0-8.1,3.4-9.1,7c-0.8-2.5-3-4.3-5.4-5
		c1.8-1.3,2.7-3.1,2.7-5.2c0-1.9-0.8-3.7-2.2-4.9c-2-1.7-4.7-2-8-2H0.1v28.1c1.8,0,3.7,0,5.6,0c1.6,0,3.2,0,4.7-0.1
		c4.7-0.2,8-2.6,9-6.2c0.4,1.6,1,2.9,1.9,3.9c1.8,2,4.5,2.8,7.1,2.8c3.3,0,5.6-1,7.3-2.4l-2.3-2.7c-1.2,0.9-2.7,1.4-4.3,1.4
		c-3.3,0-4.8-2.1-4.9-4.1h12.9v7.4H42V0.3h-4.8L37.1,16.6L37.1,16.6z M5.1,3.9l1.3,0c1.3,0,2.3,0.1,3.1,0.4c1.5,0.6,2.1,1.7,2.1,3.2
		c0,1.2-0.5,3.1-3,3.7c-0.4,0.1-1,0.1-1.9,0.1H5.1L5.1,3.9L5.1,3.9z M10.5,24.1c-0.6,0.1-1.3,0.1-1.9,0.1H5.1l0-9.2h3.1
		c1,0,2.1,0.1,2.8,0.3c2.2,0.6,3.5,2.2,3.5,4.3C14.4,21.8,13.3,23.6,10.5,24.1L10.5,24.1z M24.3,17.3c0.4-2,1.9-3.5,4.2-3.5
		c2.2,0,3.7,1.3,4.1,3.5H24.3L24.3,17.3z M45.2,0.3h4.7v27.9h-4.7V0.3z" />
  </g>
</svg>