<?xml version="1.0" encoding="utf-8"?>
<!-- Generator: Adobe Illustrator 24.1.0, SVG Export Plug-In . SVG Version: 6.00 Build 0)  -->
<svg version="1.1" id="Telus" xmlns="http://www.w3.org/2000/svg" xmlns:xlink="http://www.w3.org/1999/xlink" x="0px" y="0px" viewBox="0 0 106.1 20.4" style="enable-background:new 0 0 106.1 20.4;" xml:space="preserve">
  <style type="text/css">
	.st0{fill:#3E2557;}
	.st1{fill:#6FBE44;}
</style>
  <g>
    <g id="Telus_1_">
      <path class="st0" d="M63,5.8h-4.6v2.1h3.8v2.2h-3.8v2.5H63v2.3h-7.7V3.6H63V5.8L63,5.8z M76.7,12.6v2.2h-8V3.6h3.2v9H76.7z
			 M102.3,7.9c2.5,0.6,3.6,1.6,3.6,3.3c0,0.9-0.3,1.8-1,2.4c-1.1,1-2.7,1.4-4.8,1.4c-1.5,0-3-0.3-4.4-1l0.7-2.2
			c1.2,0.6,2.5,0.9,3.8,0.9c1.4,0,2.2-0.4,2.2-1.2s-1.6-1.2-3.1-1.5S95.9,8.9,96,6.8c0.1-2.3,2.1-3.5,5-3.5c1.5,0,3,0.3,4.3,0.9
			l-0.9,2.1c-1-0.5-2.2-0.8-3.3-0.8c-0.6,0-1.7,0.2-1.7,1C99.4,7.3,100.1,7.4,102.3,7.9L102.3,7.9z M50.7,5.9h-3.3v9h-3.2v-9H41V3.6
			h9.7V5.9L50.7,5.9z M87.5,3.7h3.3v7.4c0.1,0.6,0,1.2-0.2,1.8c-0.4,1-1.9,2.2-4.8,2.2h-0.1c-2.1,0-3.7-0.5-4.5-1.5
			c-0.5-0.6-0.7-1.4-0.6-2.1V3.6h3.3v7.3c0,0.4,0,0.8,0.2,1.2c0.4,0.5,1,0.7,1.6,0.6c1,0,1.7-0.4,1.8-1.1c0-0.3,0-0.6,0-0.9
			L87.5,3.7L87.5,3.7z" />
      <path class="st0" d="M42.5,0.6L24,4.2v1.3h0.1c12.2-3,18.4-4.8,18.4-4.8V0.6C42.6,0.6,42.6,0.6,42.5,0.6" />
      <path class="st1" d="M27,1.6c0.3-0.2,0.4-0.1,0.3,0.1c-0.1,0.2-0.7,2.4-5.4,6.2c-1.2,1-2.5,1.8-3.9,2.6C20.6,7,23.6,4.1,27,1.6
			 M27.5,0.2c-0.9,0-2.6,1.4-3.5,2.2c-3.2,2.6-6,5.6-8.3,9c-4.7,2.5-9.5,4.5-14.5,6.2l0,0l-1,2.7l0.6-0.2c4.7-1.8,9.3-3.9,13.8-6.2
			c-0.3,0.7-0.5,1.4-0.5,2.2c0,0.4,0.1,0.9,0.2,1.3c0.3,0.8,1,1.4,1.8,1.7c1.6,0.5,3.4,0.5,5-0.1c5.1-1.5,11.1-6.2,12.4-7.2h0.1
			v-0.1h-0.1h-0.1c-1.4,0.8-8.2,4.9-12.7,6.1c-2.3,0.6-4,0.3-4.6-0.6c-0.2-0.3-0.4-0.8-0.3-1.2c0.1-1.2,0.5-2.3,1.2-3.3
			c0.8-0.4,1.4-0.8,2.1-1.2c4.3-2.4,9.3-7.2,9.5-10V1.2c0-0.3-0.1-0.5-0.3-0.7C28.1,0.3,27.8,0.2,27.5,0.2" />
      <path class="st0" d="M24,4.2L4.6,8.4l-0.8,2L24,5.5l0,0V4.2L24,4.2" />
    </g>
  </g>
</svg>