<?xml version="1.0" standalone="no"?>
<!DOCTYPE svg PUBLIC "-//W3C//DTD SVG 20010904//EN"
 "http://www.w3.org/TR/2001/REC-SVG-20010904/DTD/svg10.dtd">
<svg version="1.0" xmlns="http://www.w3.org/2000/svg"
 width="100.000000pt" height="100.000000pt" viewBox="0 0 100.000000 100.000000"
 preserveAspectRatio="xMidYMid meet">
<metadata>
Created by potrace 1.11, written by Peter Selinger 2001-2013
</metadata>
<g transform="translate(0.000000,100.000000) scale(0.100000,-0.100000)"
fill="#000000" stroke="none">
<path d="M345 838 c-11 -6 -23 -16 -27 -22 -4 -6 -8 -143 -8 -303 0 -280 1
-294 20 -313 18 -18 33 -20 164 -20 122 0 147 3 165 18 21 17 22 22 22 304 0
158 -2 296 -5 306 -4 11 -18 24 -32 30 -33 16 -272 15 -299 0z"/>
<path d="M105 726 c-73 -96 -82 -211 -25 -321 19 -38 41 -70 48 -73 17 -5 15
23 -3 38 -8 6 -24 37 -36 68 -36 95 -22 200 36 276 15 20 22 37 16 40 -5 4
-22 -9 -36 -28z"/>
<path d="M845 751 c-3 -6 1 -19 11 -28 9 -10 27 -40 40 -68 41 -87 28 -204
-31 -281 -22 -29 -24 -44 -5 -44 14 0 57 75 75 129 22 68 16 144 -19 216 -29
59 -60 92 -71 76z"/>
<path d="M141 702 c-64 -91 -63 -226 3 -307 25 -31 50 -28 28 3 -35 51 -47 90
-47 157 0 59 5 77 29 114 33 51 22 81 -13 33z"/>
<path d="M816 721 c-4 -6 2 -24 14 -41 32 -46 47 -130 32 -188 -7 -26 -22 -59
-32 -74 -11 -15 -20 -32 -20 -38 0 -19 18 -10 39 19 47 66 60 145 37 223 -18
59 -59 117 -70 99z"/>
<path d="M184 665 c-26 -39 -42 -96 -38 -129 6 -44 33 -112 49 -126 19 -16 30
6 11 25 -42 42 -46 159 -7 213 12 18 17 33 12 37 -6 3 -18 -6 -27 -20z"/>
<path d="M778 684 c-3 -3 5 -24 18 -47 32 -56 32 -119 -1 -181 -28 -53 -29
-56 -15 -56 5 0 21 21 36 46 36 61 35 138 -1 201 -27 45 -28 46 -37 37z"/>
</g>
</svg>
