<?xml version="1.0" encoding="utf-8"?>
<!-- Generator: Adobe Illustrator 24.1.0, SVG Export Plug-In . SVG Version: 6.00 Build 0)  -->
<svg version="1.1" id="ROGERS" xmlns="http://www.w3.org/2000/svg" xmlns:xlink="http://www.w3.org/1999/xlink" x="0px" y="0px" viewBox="0 0 97.2 17.9" style="enable-background:new 0 0 97.2 17.9;" xml:space="preserve">
  <g>
    <g id="Rogers">
      <g>
        <g>
          <defs>
            <path id="SVGID_1_" d="M2.4,12.8c0,2.6,2.2,5,6,5c2,0,3.9-0.8,5.3-2.1l0,0c-0.8,0.3-1.7,0.4-2.5,0.4c-2.9,0-6.2-2.4-7.8-6.5
						C2.7,10.6,2.4,11.7,2.4,12.8z M14.9,6c0,3.1-2.2,6.6-6.1,8.4c0.9,0.7,1.9,1,3,1c2.4,0,4.6-2.4,4.6-6.4c0-2.1-0.7-4.1-2-5.7
						C14.8,4.1,14.9,5.1,14.9,6z M0.1,9c0,2.1,0.7,4.1,2,5.7l0,0c-0.3-0.9-0.4-1.8-0.4-2.7c0-3.1,2.2-6.6,6.1-8.4
						c-0.9-0.6-1.9-1-3-1C2.3,2.6,0.1,5,0.1,9L0.1,9z M3,2.3C3.8,2,4.7,1.9,5.5,1.9c2.9,0,6.2,2.4,7.8,6.5c0.6-1,0.9-2.1,0.9-3.2
						c0-2.6-2.2-5-6-5C6.3,0.2,4.4,1,3,2.3z" />
          </defs>
          <use xlink:href="#SVGID_1_" style="overflow:visible;fill:#EA3626;" />
          <clipPath id="SVGID_2_">
            <use xlink:href="#SVGID_1_" style="overflow:visible;" />
          </clipPath>
        </g>
      </g>
      <g>
        <g>
          <defs>
            <path id="SVGID_3_" d="M93.1,13.4v0.2h0.6v1.7H94v-1.7h0.6v-0.2C94.6,13.4,93.1,13.4,93.1,13.4z M96.4,13.4l-0.6,1.4l0,0
						l-0.6-1.4h-0.4v1.9h0.3v-1.6l0,0l0.7,1.6H96l0.6-1.6l0,0v1.6h0.3v-1.9H96.4z M24.7,4.5h1.5c2,0,2.3,1.3,2.3,2s-0.4,2-2.3,2
						h-1.5V4.5z M22.5,2.6v12.7h2.2v-5h0.8c1.2,0,1.5,0.4,2.2,1.7l1.8,3.2h2.6L30,11.5c-0.7-1.2-1.2-1.5-1.5-1.6V9.8
						c1.4-0.5,2.3-1.9,2.3-3.5c0-1.7-1.1-3.9-4.6-3.9L22.5,2.6z M61.3,2.6v12.7h7.8v-1.9h-5.5V9.8h4.8V7.9h-4.8V4.5h4.9l0.6-1.9
						C69.1,2.6,61.3,2.6,61.3,2.6z M74.6,4.5h1.5c2,0,2.3,1.3,2.3,2s-0.4,2-2.3,2h-1.5V4.5z M72.3,2.6v12.7h2.2v-5h0.8
						c1.2,0,1.4,0.4,2.2,1.7l1.8,3.3h2.6l-2.1-3.7c-0.7-1.2-1.2-1.5-1.5-1.6V9.9c1.4-0.5,2.3-1.9,2.3-3.5c0-1.7-1.1-3.9-4.6-3.9
						L72.3,2.6z M35.5,8.9c0-2.9,1.2-4.6,3.5-4.6s3.5,1.7,3.5,4.6s-1.2,4.5-3.5,4.5S35.5,11.8,35.5,8.9z M33.1,8.9
						c0,3.9,2.2,6.5,5.9,6.5s5.9-2.6,5.9-6.5S42.7,2.4,39,2.4S33.1,5.1,33.1,8.9z M47.1,9.1c0,3.6,2.2,6.3,6.2,6.3
						c1.5,0,3-0.3,4.3-1v-6H54l-0.5,1.9h1.9v2.8c-0.6,0.3-1.2,0.4-1.8,0.4c-2.7,0-4-1.8-4-4.5s1.3-4.6,4.1-4.6c1,0,2,0.3,2.9,0.9
						l0.6-2c-1.1-0.6-2.4-0.9-3.7-0.9C49.6,2.5,47.1,5.3,47.1,9.1L47.1,9.1z M83.5,5.9c0,1.9,1.5,2.8,2.8,3.5l0.9,0.5
						c1,0.6,1.8,1,1.8,2s-1,1.6-2.1,1.6s-2.1-0.2-3.1-0.8l-0.6,1.9c1.2,0.6,2.4,0.9,3.7,0.8c2.6,0,4.5-1.5,4.5-3.8
						c0-1.6-1.1-2.6-2.9-3.5l-0.8-0.5c-1-0.5-1.8-0.9-1.8-1.8s1-1.4,2-1.4c0.9,0,1.9,0.2,2.7,0.6V2.9c-1-0.3-2-0.4-3-0.4
						C85,2.5,83.6,4.1,83.5,5.9L83.5,5.9z" />
          </defs>
          <use xlink:href="#SVGID_3_" style="overflow:visible;fill:#EA3626;" />
          <clipPath id="SVGID_4_">
            <use xlink:href="#SVGID_3_" style="overflow:visible;" />
          </clipPath>
        </g>
      </g>
    </g>
  </g>
</svg>